<svg width="269" height="188" viewBox="0 0 269 188" fill="none" xmlns="http://www.w3.org/2000/svg">
<rect y="76" width="38" height="112" rx="19" fill="#020617"/>
<rect x="45" width="38" height="152" rx="19" fill="#020617"/>
<path d="M100.32 96.4C96.9867 96.4 94.3067 95.9733 92.28 95.12V91.28C93.4267 91.7067 94.6533 92.0533 95.96 92.32C97.2933 92.5867 98.6133 92.72 99.92 92.72C101.973 92.72 103.507 92.48 104.52 92C105.56 91.52 106.08 90.56 106.08 89.12C106.08 88.24 105.867 87.5333 105.44 87C105.013 86.4667 104.307 86.0133 103.32 85.64C102.333 85.24 100.973 84.8267 99.24 84.4C96.4667 83.68 94.52 82.7733 93.4 81.68C92.28 80.56 91.72 79.0267 91.72 77.08C91.72 74.8133 92.5467 73.04 94.2 71.76C95.8533 70.48 98.32 69.84 101.6 69.84C103.093 69.84 104.493 69.9467 105.8 70.16C107.133 70.3733 108.173 70.6133 108.92 70.88V74.72C106.893 73.9467 104.653 73.56 102.2 73.56C100.28 73.56 98.7867 73.8133 97.72 74.32C96.6533 74.8267 96.12 75.7467 96.12 77.08C96.12 77.8533 96.3067 78.48 96.68 78.96C97.0533 79.44 97.6933 79.8533 98.6 80.2C99.5333 80.5467 100.813 80.9333 102.44 81.36C104.547 81.8933 106.173 82.5333 107.32 83.28C108.493 84 109.307 84.8533 109.76 85.84C110.24 86.8 110.48 87.8933 110.48 89.12C110.48 91.3867 109.64 93.1733 107.96 94.48C106.28 95.76 103.733 96.4 100.32 96.4ZM119.786 96V73.64H111.546V70.24H132.346V73.64H124.146V96H119.786ZM146.85 96.4C142.77 96.4 139.716 95.3333 137.69 93.2C135.663 91.04 134.65 87.7067 134.65 83.2C134.65 78.5067 135.663 75.1067 137.69 73C139.716 70.8933 142.77 69.84 146.85 69.84C150.956 69.84 154.01 70.8933 156.01 73C158.036 75.1067 159.05 78.5067 159.05 83.2C159.05 87.7067 158.036 91.04 156.01 93.2C154.01 95.3333 150.956 96.4 146.85 96.4ZM146.85 92.72C149.543 92.72 151.516 91.9867 152.77 90.52C154.05 89.0267 154.69 86.5867 154.69 83.2C154.69 79.6267 154.05 77.1333 152.77 75.72C151.516 74.28 149.543 73.56 146.85 73.56C144.183 73.56 142.21 74.28 140.93 75.72C139.676 77.1333 139.05 79.6267 139.05 83.2C139.05 86.5867 139.676 89.0267 140.93 90.52C142.21 91.9867 144.183 92.72 146.85 92.72ZM175.381 96.4C171.141 96.4 167.928 95.24 165.741 92.92C163.581 90.6 162.501 87.4667 162.501 83.52C162.501 80.6933 162.955 78.2667 163.861 76.24C164.795 74.1867 166.208 72.6133 168.101 71.52C169.995 70.4 172.408 69.84 175.341 69.84C176.835 69.84 178.195 69.96 179.421 70.2C180.675 70.4133 181.835 70.7067 182.901 71.08V74.88C181.835 74.4533 180.688 74.1333 179.461 73.92C178.261 73.68 176.995 73.56 175.661 73.56C172.461 73.56 170.195 74.4133 168.861 76.12C167.555 77.8267 166.901 80.2933 166.901 83.52C166.901 86.5333 167.621 88.8267 169.061 90.4C170.501 91.9467 172.728 92.72 175.741 92.72C176.968 92.72 178.195 92.6267 179.421 92.44C180.675 92.2267 181.848 91.9067 182.941 91.48V95.32C181.875 95.6667 180.715 95.9333 179.461 96.12C178.235 96.3067 176.875 96.4 175.381 96.4ZM187.168 96V70.24H191.528V82.08L202.488 70.24H207.528L198.048 80.64L207.928 96H203.288L195.328 83.4L191.528 87.48V96H187.168ZM212.168 96V70.24H224.648C227.208 70.24 229.102 70.84 230.328 72.04C231.555 73.24 232.168 74.9333 232.168 77.12C232.168 78.5067 231.888 79.68 231.328 80.64C230.768 81.5733 230.022 82.28 229.088 82.76C230.342 83.1067 231.328 83.7333 232.048 84.64C232.795 85.52 233.168 86.8267 233.168 88.56C233.168 91.0667 232.488 92.9333 231.128 94.16C229.795 95.3867 227.822 96 225.208 96H212.168ZM216.528 81.24H224.048C225.515 81.24 226.555 80.9067 227.168 80.24C227.808 79.5467 228.128 78.6267 228.128 77.48C228.128 76.1467 227.808 75.16 227.168 74.52C226.528 73.8533 225.328 73.52 223.568 73.52H216.528V81.24ZM216.528 92.8H224.288C225.835 92.8 226.968 92.48 227.688 91.84C228.408 91.1733 228.768 90.0267 228.768 88.4C228.768 87.0667 228.408 86.08 227.688 85.44C226.995 84.7733 225.715 84.44 223.848 84.44H216.528V92.8ZM237.403 96V70.24H247.843C251.656 70.24 254.483 71.2533 256.323 73.28C258.163 75.28 259.083 78.6133 259.083 83.28C259.083 87.68 258.176 90.9067 256.363 92.96C254.549 94.9867 251.709 96 247.843 96H237.403ZM241.763 92.64H247.163C248.843 92.64 250.243 92.4 251.363 91.92C252.483 91.4133 253.323 90.48 253.883 89.12C254.443 87.76 254.723 85.8133 254.723 83.28C254.723 80.7467 254.469 78.7867 253.963 77.4C253.456 76.0133 252.643 75.04 251.523 74.48C250.429 73.92 248.976 73.64 247.163 73.64H241.763V92.64Z" fill="#020617"/>
</svg>
